# AST/ASF file generated using VICON BodyLanguage
# -----------------------------------------------
:version 1.10
:name VICON
:units
  mass 1.0
  length 0.45
  angle deg
:documentation
   .ast/.asf automatically generated from VICON data using
   VICON BodyBuilder and BodyLanguage model FoxedUp or BRILLIANT.MOD
:root
   order TX TY TZ RX RY RZ
   axis XYZ
   position 0 0 0  
   orientation 0 0 0 
:bonedata
  begin
     id 1 
     name lhipjoint
     direction 0.541323 -0.757556 0.364798 
     length 2.47576 
     axis 0 0 0  XYZ
  end
  begin
     id 2 
     name lfemur
     direction 0.34202 -0.939693 0  
     length 7.46493  
     axis 0 0 20  XYZ
    dof rx ry rz
    limits (-160.0 20.0)
           (-70.0 70.0)
           (-60.0 70.0)
  end
  begin
     id 3 
     name ltibia
     direction 0.34202 -0.939693 0   
     length 7.73805   
     axis 0 0 20   XYZ
    dof rx
    limits (-10.0 170.0)
  end
  begin
     id 4 
     name lfoot
     direction 0.107174 -0.294458 0.949636   
     length 2.25864   
     axis -90 7.62852e-016 20   XYZ
    dof rx rz
    limits (-45.0 90.0)
           (-70.0 20.0)
  end
  begin
     id 5 
     name ltoes
     direction 1.53606e-011 -4.21934e-011 1   
     length 1.12451   
     axis -90 7.62852e-016 20   XYZ
    dof rx
    limits (-90.0 20.0)
  end
  begin
     id 6 
     name rhipjoint
     direction -0.524745 -0.766967 0.36933   
     length 2.44538  
     axis 0 0 0  XYZ 
  end
  begin
     id 7 
     name rfemur
     direction -0.34202 -0.939693 0   
     length 7.61604   
     axis 0 0 -20   XYZ
    dof rx ry rz
    limits (-160.0 20.0)
           (-70.0 70.0)
           (-70.0 60.0)
  end
  begin
     id 8 
     name rtibia
     direction -0.34202 -0.939693 0   
     length 7.61056   
     axis 0 0 -20   XYZ
    dof rx
    limits (-10.0 170.0)
 end
 begin
     id 9 
     name rfoot
     direction -0.12616 -0.346623 0.929482   
     length 2.46372  
     axis -90 -7.62852e-016 -20   XYZ
    dof rx rz
    limits (-45.0 90.0)
           (-20.0 70.0)
  end
  begin
     id 10 
     name rtoes
     direction -1.53531e-011 -4.22004e-011 1   
     length 1.21611   
     axis -90 -7.62852e-016 -20   XYZ
    dof rx
    limits (-90.0 20.0)
  end
  begin
     id 11 
     name lowerback
     direction -0.000778023 0.997293 -0.0735223   
     length 2.06139   
     axis 0 0 0   XYZ
    dof rx ry rz
    limits (-20.0 45.0)
           (-30.0 30.0)
           (-30.0 30.0)
  end
  begin
     id 12 
     name upperback
     direction 0.0222598 0.999722 -0.0078355   
     length 2.06383   
     axis 0 0 0   XYZ
    dof rx ry rz
    limits (-20.0 45.0)
           (-30.0 30.0)
           (-30.0 30.0)
  end
  begin
     id 13 
     name thorax
     direction 0.0219654 0.999405 0.0265994   
     length 2.07163   
     axis 0 0 0   XYZ
    dof rx ry rz
    limits (-20.0 45.0)
           (-30.0 30.0)
           (-30.0 30.0)
  end
  begin
     id 14 
     name lowerneck
     direction 0.0213282 0.988147 0.15202   
     length 1.75969   
     axis 0 0 0   XYZ
    dof rx ry rz
    limits (-20.0 45.0)
           (-30.0 30.0)
           (-30.0 30.0)
  end
  begin
     id 15 
     name upperneck
     direction -0.0546456 0.982624 -0.177379   
     length 1.79244   
     axis 0 0 0   XYZ
    dof rx ry rz
    limits (-20.0 45.0)
           (-30.0 30.0)
           (-30.0 30.0)
  end
  begin
     id 16
     name head
     direction -0.0199987 0.996855 -0.076686  
     length 1.80555  
     axis 0 0 0   XYZ
    dof rx ry rz
    limits (-20.0 45.0)
           (-30.0 30.0)
           (-30.0 30.0)
  end
  begin
     id 17 
     name lclavicle
     direction 0.929565 0.363219 -0.063096  
     length 3.55722  
     axis 0 0 0   XYZ
    dof ry rz
    limits (-20.0 10.0)
           (0.0 20.0)
  end
  begin
     id 18 
     name lhumerus
     direction 1 -4.48993e-011 -2.36203e-027   
     length 4.92785   
     axis 180 -30 -90   XYZ
    dof rx ry rz
    limits (-60.0 90.0)
           (-90.0 90.0)
           (-90.0 90.0)
  end
  begin
     id 19
     name lradius
     direction 1 -4.48947e-011 2.02997e-027   
     length 3.44052   
     axis 180 -30 -90   XYZ
    dof rx
    limits (-10.0 170.0)
  end
  begin
     id 20
     name lwrist
     direction 1 -4.48962e-011 1.45991e-027   
     length 1.72026   
     axis 1.49639e-024 90 90   XYZ
    dof ry
    limits (-180.0 0.0)
 end
  begin
     id 21 
     name lhand
     direction 1 -4.48984e-011 2.91906e-027   
     length 0.654326   
     axis -1.863e-015 90 90   XYZ
    dof rx rz
    limits (-90.0 90.0)
           (-45.0 45.0)
  end
  begin
     id 22 
     name lfingers
     direction 1 -4.48961e-011 5.83968e-027   
     length 0.527534   
     axis -3.72598e-015 90 90   XYZ
    dof rx
    limits (0.0 90.0)
  end
  begin
     id 23
     name lthumb
     direction 0.707107 -6.34963e-011 0.707107   
     length 0.757437   
     axis -90 45 -6.68868e-015   XYZ
    dof rx rz
    limits (-45.0 45.0)
           (-45.0 45.0)
  end
  begin
     id 24 
     name rclavicle
     direction -0.902944 0.422599 -0.0781198   
     length 3.54432  
     axis 0 0 0   XYZ 
    dof ry rz
    limits (-10.0 20.0)
           (-20.0 0.0)
  end
  begin
     id 25 
     name rhumerus
     direction -1 -4.48953e-011 -4.75835e-028  
     length 5.09181   
     axis 180 30 90   XYZ
    dof rx ry rz
    limits (-90.0 60.0)
           (-90.0 90.0)
           (-90.0 90.0)
  end
  begin
     id 26 
     name rradius
     direction -1 -4.48986e-011 -3.25889e-027   
     length 3.49865   
     axis 180 30 90   XYZ
    dof rx
    limits (-10.0 170.0)
  end
  begin
     id 27 
     name rwrist
     direction -1 -4.48963e-011 1.45989e-027   
     length 1.74933   
     axis 1.49639e-024 -90 -90   XYZ
    dof ry
    limits (-180.0 0.0)
  end
  begin
     id 28
     name rhand
     direction -1 -4.49003e-011 2.91844e-027   
     length 0.66641   
     axis -1.863e-015 -90 -90   XYZ
    dof rx rz
    limits (-90.0 90.0)
           (-45.0 45.0)
  end
  begin
     id 29
     name rfingers
     direction -1 -4.48973e-011 5.83886e-027   
     length 0.537277   
     axis -3.72598e-015 -90 -90   XYZ
    dof rx
    limits (0.0 90.0)
  end
  begin
     id 30
     name rthumb
     direction -0.707107 -6.34976e-011 0.707107   
     length 0.771425   
     axis -90 -45 6.68868e-015   XYZ
    dof rx rz
    limits (-45.0 45.0)
           (-45.0 45.0)
  end
:hierarchy
  begin
    root lhipjoint rhipjoint lowerback
    lhipjoint lfemur
    lfemur ltibia
    ltibia lfoot
    lfoot ltoes
    rhipjoint rfemur
    rfemur rtibia
    rtibia rfoot
    rfoot rtoes
    lowerback upperback
    upperback thorax
    thorax lowerneck lclavicle rclavicle
    lowerneck upperneck
    upperneck head
    lclavicle lhumerus
    lhumerus lradius
    lradius lwrist
    lwrist lhand lthumb
    lhand lfingers
    rclavicle rhumerus
    rhumerus rradius
    rradius rwrist
    rwrist rhand rthumb
    rhand rfingers
  end

#!OML:ASF H:\LiuWeirdWalks\Patient Classification 1\Patient 1\Session 1\male.ASF
:FULLY-SPECIFIED
:DEGREES
50
root 1.3246 16.485 4.15576 -7.01658 0.275116 -1.01204
lowerback 9.10671 0.217935 -0.494421
upperback 2.13537 0.319751 2.25846
thorax -2.90558 0.166003 2.5817
lowerneck -23.1982 1.70886 4.6529
upperneck 19.7541 2.42914 -6.72017
head 10.287 0.643745 -2.79798
rclavicle -3.01904e-015 -1.51076e-014
rhumerus 25.9916 -1.53166 -40.6457
rradius 70.0695
rwrist 2.16207
rhand 12.5077 -2.02723
rfingers 7.12502
rthumb 37.5007 -27.9606
lclavicle -3.01904e-015 -1.51076e-014
lhumerus 20.1187 8.35773 54.0114
lradius 70.5205
lwrist -13.634
lhand 13.6361 -2.70018
lfingers 7.12502
lthumb 38.5663 22.9427
rfemur -13.7631 -9.40904 15.1254
rtibia 59.5574
rfoot -27.4494 -16.7238
rtoes -12.0827
lfemur -13.1929 10.9364 -12.2413
ltibia 56.5152
lfoot -25.2744 14.078
ltoes -13.0662
51
root 1.32394 16.4856 4.15553 -7.0111 0.259118 -0.992019
lowerback 9.09597 0.218168 -0.499082
upperback 2.15152 0.318794 2.24456
thorax -2.8828 0.165233 2.56991
lowerneck -23.1786 1.73239 4.71936
upperneck 19.6811 2.44983 -6.777
head 10.2602 0.652196 -2.82488
rclavicle -1.6027e-015 -1.59028e-014
rhumerus 26.0346 -1.55052 -40.6492
rradius 70.0667
rwrist 2.17023
rhand 12.5135 -2.01267
rfingers 7.12502
rthumb 37.5062 -27.9446
lclavicle -1.6027e-015 -1.59028e-014
lhumerus 20.1419 8.39173 54.0017
lradius 70.5182
lwrist -13.643
lhand 13.7437 -2.49724
lfingers 7.12502
lthumb 38.6678 23.1171
rfemur -13.7716 -9.38915 15.1116
rtibia 59.5547
rfoot -27.4448 -16.7303
rtoes -12.0877
lfemur -13.1876 10.9434 -12.2626
ltibia 56.4999
lfoot -25.2684 14.0867
ltoes -13.058
52
root 1.32322 16.4863 4.15526 -7.00526 0.238715 -0.980748
lowerback 9.08821 0.219772 -0.495969
upperback 2.16852 0.32047 2.23296
thorax -2.86088 0.165732 2.55583
lowerneck -23.1803 1.74787 4.76054
upperneck 19.6276 2.46188 -6.80812
head 10.243 0.657395 -2.84008
rclavicle 2.00027e-015 5.96354e-015
rhumerus 26.0777 -1.57721 -40.6579
rradius 70.0625
rwrist 2.19016
rhand 12.5067 -1.99132
rfingers 7.12502
rthumb 37.4998 -27.9249
lclavicle 2.00027e-015 5.96354e-015
lhumerus 20.1691 8.4257 53.9892
lradius 70.5124
lwrist -13.6475
lhand 13.788 -2.37642
lfingers 7.12502
lthumb 38.7096 23.2262
rfemur -13.7814 -9.36342 15.1101
rtibia 59.552
rfoot -27.4418 -16.7369
rtoes -12.0839
lfemur -13.1838 10.9572 -12.2712
ltibia 56.4874
lfoot -25.2663 14.088
ltoes -13.0479
53
root 1.32247 16.4868 4.15488 -6.99797 0.217657 -0.971864
lowerback 9.08037 0.223086 -0.490768
upperback 2.18586 0.324605 2.22112
thorax -2.83868 0.167442 2.54005
lowerneck -23.1976 1.75444 4.77956
upperneck 19.591 2.46348 -6.81508
head 10.2334 0.658671 -2.84488
rclavicle 5.32991e-015 1.19271e-014
rhumerus 26.1182 -1.60999 -40.667
rradius 70.0588
rwrist 2.20438
rhand 12.4883 -1.97756
rfingers 7.12502
rthumb 37.4824 -27.9158
lclavicle 5.32991e-015 1.19271e-014
lhumerus 20.2002 8.45468 53.9739
lradius 70.507
lwrist -13.645
lhand 13.7685 -2.36422
lfingers 7.12502
lthumb 38.6912 23.2436
rfemur -13.7946 -9.33601 15.1125
rtibia 59.5517
rfoot -27.4412 -16.7427
rtoes -12.0716
lfemur -13.1848 10.976 -12.2753
ltibia 56.4788
lfoot -25.2667 14.0823
ltoes -13.0369
54
root 1.32161 16.4872 4.15434 -6.98813 0.195513 -0.969672
lowerback 9.07365 0.227726 -0.480694
upperback 2.20063 0.33108 2.2115
thorax -2.81986 0.17034 2.52357
lowerneck -23.2199 1.75458 4.78443
upperneck 19.5682 2.45802 -6.80769
head 10.2287 0.657198 -2.84353
rclavicle -2.79541e-015 1.19271e-015
rhumerus 26.1472 -1.64377 -40.6702
rradius 70.0606
rwrist 2.21392
rhand 12.4665 -1.96768
rfingers 7.12502
rthumb 37.4618 -27.9113
lclavicle -2.79541e-015 1.19271e-015
lhumerus 20.2291 8.47616 53.9551
lradius 70.5052
lwrist -13.6328
lhand 13.7506 -2.34352
lfingers 7.12502
lthumb 38.6743 23.269
rfemur -13.8132 -9.30677 15.1244
rtibia 59.554
rfoot -27.4416 -16.7504
rtoes -12.0563
lfemur -13.191 11.0001 -12.2699
ltibia 56.4735
lfoot -25.2686 14.0703
ltoes -13.0222
